#!OML:ASF F:\VICON\USERDATA\INSTALL\rory3\rory3.ASF
:FULLY-SPECIFIED
:DEGREES
2418
root 1.28724 16.1496 -14.6857 -422.734 -88.3156 422.385
lowerback 14.99 0.949503 -6.80256
upperback -2.52744 0.195187 2.07347
thorax -11.3014 0.627106 6.11526
lowerneck -11.051 -6.13689 -4.14366
upperneck 19.6438 -8.92682 4.40133
head 8.30172 -4.22464 1.18409
rclavicle 1.59028e-015 1.98785e-014
rhumerus -12.2511 11.3084 -83.2465
rradius 11.8549
rwrist 36.3299
rhand -3.96272 25.9996
rfingers 7.12502
rthumb 21.7898 -2.79381
lclavicle 1.59028e-015 1.98785e-014
lhumerus -24.4923 -43.7992 91.264
lradius 24.9138
lwrist 0.883407
lhand -5.22633 17.0882
lfingers 7.12502
lthumb 20.5759 46.0177
rfemur -11.4209 14.2568 13.2146
rtibia 31.1601
rfoot -15.5165 -3.52533
rtoes -29.1782
lfemur -16.4128 -5.28865 -19.4113
ltibia 37.9844
lfoot -16.3884 2.27365
ltoes -10.6247
2419
root 1.29889 16.1437 -14.6666 -421.883 -88.3795 421.524
lowerback 15.1047 0.888265 -6.58754
upperback -2.552 0.144298 2.05726
thorax -11.3851 0.59213 5.98801
lowerneck -11.0264 -6.20541 -4.24172
upperneck 19.728 -9.03924 4.5114
head 8.34107 -4.27551 1.22277
rclavicle -3.85766e-015 -9.14409e-015
rhumerus -12.1023 10.601 -83.2007
rradius 11.9551
rwrist 37.5501
rhand -3.51074 25.826
rfingers 7.12502
rthumb 22.2237 -2.91632
lclavicle -3.85766e-015 -9.14409e-015
lhumerus -24.0715 -43.1414 91.3738
lradius 24.4953
lwrist 0.430597
lhand -5.32339 18.0764
lfingers 7.12502
lthumb 20.4827 47.0159
rfemur -11.5276 14.0675 13.197
rtibia 31.2437
rfoot -15.505 -3.5166
rtoes -30.179
lfemur -16.5587 -5.11585 -19.4259
ltibia 38.1186
lfoot -16.3387 2.52474
ltoes -12.1267
2420
root 1.3058 16.144 -14.6438 -424.103 -88.2917 423.764
lowerback 15.0957 0.842062 -6.54343
upperback -2.54907 0.0840254 1.98663
thorax -11.3657 0.556708 5.8981
lowerneck -11.2158 -6.27112 -4.30586
upperneck 19.9972 -9.1487 4.56737
head 8.47758 -4.32129 1.22917
rclavicle 3.80797e-015 -1.47101e-014
rhumerus -11.8983 10.0546 -83.1896
rradius 11.8721
rwrist 38.173
rhand -3.33839 25.831
rfingers 7.12502
rthumb 22.3892 -2.8915
lclavicle 3.80797e-015 -1.47101e-014
lhumerus -24.3832 -44.1617 91.8608
lradius 25.1025
lwrist 1.70841
lhand -5.30488 19.7075
lfingers 7.12502
lthumb 20.5005 48.6451
rfemur -11.6615 13.8572 12.927
rtibia 31.3315
rfoot -15.5837 -3.0853
rtoes -28.7768
lfemur -16.66 -5.18524 -19.6542
ltibia 38.1973
lfoot -16.339 2.74856
ltoes -12.8775
2421
root 1.3159 16.1438 -14.6178 -422.34 -88.1892 422.118
lowerback 15.0024 0.758057 -6.37768
upperback -2.56726 0.00353342 1.93391
thorax -11.3164 0.503685 5.76201
lowerneck -11.3287 -6.2654 -4.27649
upperneck 20.1063 -9.13732 4.50673
head 8.53003 -4.31627 1.20068
rclavicle -1.41634e-015 1.59028e-015
rhumerus -11.8041 10.7801 -83.2659
rradius 11.8323
rwrist 37.1428
rhand -3.40773 25.8244
rfingers 7.12502
rthumb 22.3226 -2.90613
lclavicle -1.41634e-015 1.59028e-015
lhumerus -25.5077 -46.7477 92.4987
lradius 26.5875
lwrist 4.57346
lhand -5.18165 20.4257
lfingers 7.12502
lthumb 20.6189 49.3506
rfemur -11.8594 13.6779 12.6538
rtibia 31.3654
rfoot -15.6319 -2.52369
rtoes -26.7098
lfemur -16.9094 -5.50337 -19.8507
ltibia 38.2859
lfoot -16.2562 3.08893
ltoes -14.1952
2422
root 1.32281 16.142 -14.6267 -437.526 -88.4156 437.137
lowerback 15.1118 1.00926 -6.7218
upperback -2.4758 0.279386 2.03847
thorax -11.3262 0.659473 6.00987
lowerneck -11.3487 -6.27048 -4.06766
upperneck 20.028 -9.11579 4.24274
head 8.48269 -4.31531 1.08299
rclavicle 4.19311e-015 -1.94809e-014
rhumerus -11.7107 11.9701 -83.2368
rradius 11.9064
rwrist 35.9403
rhand -3.12586 25.8451
rfingers 7.12502
rthumb 22.5932 -2.85271
lclavicle 4.19311e-015 -1.94809e-014
lhumerus -25.9832 -47.9675 92.7784
lradius 27.2421
lwrist 5.78029
lhand -5.06031 20.3305
lfingers 7.12502
lthumb 20.7355 49.2426
rfemur -11.8145 14.3088 12.7922
rtibia 31.3767
rfoot -15.5483 -2.51276
rtoes -26.1261
lfemur -16.6815 -4.85648 -19.7105
ltibia 38.354
lfoot -16.4211 2.62144
ltoes -2.20606
2423
root 1.32948 16.143 -14.6203 -446.396 -88.5548 446.005
lowerback 15.0642 1.09898 -6.78239
upperback -2.43946 0.401027 2.12556
thorax -11.2788 0.721656 6.11112
lowerneck -11.2946 -6.31449 -3.99308
upperneck 19.8667 -9.13824 4.06646
head 8.40692 -4.33852 1.01448
rclavicle -7.06307e-015 2.38542e-015
rhumerus -11.5836 13.3711 -83.3
rradius 11.9237
rwrist 34.4645
rhand -2.96707 25.6591
rfingers 7.12502
rthumb 22.7456 -3.02013
lclavicle -7.06307e-015 2.38542e-015
lhumerus -25.0525 -46.444 92.3202
lradius 26.3487
lwrist 4.29067
lhand -4.78757 19.897
lfingers 7.12502
lthumb 20.9975 48.7804
rfemur -11.8905 14.5207 12.8923
rtibia 31.3698
rfoot -15.5128 -2.78001
rtoes -27.0734
lfemur -16.7244 -4.33527 -19.5352
ltibia 38.4724
lfoot -16.5538 1.9458
ltoes 0.33018
